<mxfile host="app.diagrams.net" modified="2024-06-22T18:15:40.313Z" agent="Mozilla/5.0 (Windows NT 10.0; Win64; x64) AppleWebKit/537.36 (KHTML, like Gecko) Chrome/126.0.0.0 Safari/537.36" version="24.4.9" etag="7vydBJ60GN3-ReslEPYK" type="github">
  <diagram name="PÃ¡gina-1" id="khgLzfTWpFRCFBcHw9q2">
    <mxGraphModel>
      <root>
        <mxCell id="0" />
        <mxCell id="1" parent="0" />
      </root>
    </mxGraphModel>
  </diagram>
</mxfile>
